# xmcd CD database file
#
# Track frame offsets:
#	150
#	16507
#	33509
#	53866
#	69040
#	94874
#	160826
#
# Disc length: 2408 seconds
#
# Revision: 0
# Processed by: cddbd v1.5PL3 Copyright (c) Steve Scherf et al.
# Submitted via: CDex 1.51
#
DISCID=47096607
DTITLE=Brute Force - Brute Force
DYEAR=1970
DGENRE=Jazz
TTITLE0=Do It Right Now
TTITLE1=Some Kind of Approval
TTITLE2=The Deacon
TTITLE3=Right Direction
TTITLE4=Monster
TTITLE5=Ye-Le-Wa
TTITLE6=Doubt
EXTD=YEAR: 1970
EXTT0=
EXTT1=
EXTT2=
EXTT3=
EXTT4=
EXTT5=
EXTT6=
PLAYORDER=
